<?xml version="1.0" standalone="no"?>
<!DOCTYPE svg PUBLIC "-//W3C//DTD SVG 20010904//EN"
 "http://www.w3.org/TR/2001/REC-SVG-20010904/DTD/svg10.dtd">
<svg version="1.0" xmlns="http://www.w3.org/2000/svg"
 width="300.000000pt" height="180.000000pt" viewBox="0 0 300.000000 180.000000"
 preserveAspectRatio="xMidYMid meet">
<metadata>
Created by potrace 1.10, written by Peter Selinger 2001-2011
</metadata>
<g transform="translate(0.000000,180.000000) scale(0.100000,-0.100000)"
fill="#000000" stroke="none">
<path d="M1602 1241 c-7 -4 -14 -14 -15 -22 -2 -8 -6 -20 -11 -28 -5 -8 -9
-27 -8 -42 0 -18 -4 -29 -13 -29 -17 0 -96 -41 -131 -69 -37 -29 -123 -27
-244 4 -122 31 -230 34 -270 5 -15 -11 -40 -25 -56 -32 l-29 -12 35 -3 c147
-13 231 -46 397 -156 71 -47 151 -96 178 -108 28 -13 51 -24 53 -25 1 -1 -9
-24 -23 -53 -14 -28 -23 -56 -19 -62 10 -17 84 -47 135 -54 62 -9 152 11 189
41 l29 25 -21 37 c-11 20 -24 42 -29 47 -5 7 11 27 42 54 47 41 51 42 69 26
13 -11 32 -15 66 -13 47 3 49 4 52 35 2 24 -2 34 -18 43 -19 10 -15 15 62 61
107 64 157 112 142 137 -17 28 -74 61 -130 78 -95 27 -167 -11 -180 -97 l-7
-39 -31 40 c-30 37 -112 90 -141 90 -8 0 -11 7 -8 21 5 18 0 34 -26 88 -9 19
-23 23 -39 12z m48 -87 c0 -24 -5 -34 -20 -39 -29 -9 -40 2 -38 38 1 28 5 32
30 33 25 1 28 -2 28 -32z m-12 -48 c19 11 52 7 52 -7 0 -5 9 -9 20 -9 38 0 20
-18 -30 -30 -53 -13 -129 -7 -165 13 -18 10 -17 12 19 28 31 13 44 15 63 6 17
-7 30 -8 41 -1z m347 4 c-3 -5 1 -10 10 -10 9 0 13 5 10 10 -12 19 22 10 67
-19 51 -32 80 -71 54 -71 -8 0 -18 -9 -21 -20 -3 -11 -13 -20 -21 -20 -8 0
-14 -4 -14 -10 0 -5 -7 -10 -16 -10 -8 0 -13 -4 -9 -9 10 -17 -12 -21 -25 -5
-11 12 -10 17 8 30 49 34 14 72 -55 58 -38 -7 -50 -15 -65 -43 -11 -19 -18
-48 -16 -67 1 -20 -3 -39 -12 -46 -12 -11 -13 -11 -4 0 8 10 8 23 -2 50 -17
49 -17 77 1 92 8 7 15 18 15 25 0 18 33 53 61 64 32 13 41 13 34 1z m-797 -71
c40 -10 86 -19 102 -19 17 0 30 -4 30 -10 0 -5 17 -10 38 -9 20 0 31 3 23 6
-9 4 -2 10 20 17 30 10 40 9 83 -13 71 -36 166 -40 253 -11 l65 22 25 -24 c17
-17 27 -42 32 -81 4 -32 5 -57 2 -57 -4 0 -11 -10 -16 -22 -6 -13 -19 -27 -31
-33 -12 -6 -39 -29 -60 -51 -46 -48 -101 -61 -179 -44 -62 14 -146 50 -140 60
5 8 -51 35 -57 29 -2 -2 -17 8 -33 24 -16 15 -35 27 -42 27 -7 0 -13 4 -13 10
0 5 -14 17 -32 26 -17 9 -40 24 -51 35 -11 10 -24 16 -28 13 -4 -2 -11 1 -16
8 -10 17 -85 53 -141 69 -23 7 -47 18 -53 26 -9 10 -4 13 29 13 35 0 134 -16
212 -35 19 -5 21 -4 10 4 -9 5 -54 17 -100 26 -47 10 -87 20 -90 22 -8 9 81
-7 158 -28z m583 -11 c-11 -11 -13 -10 -8 4 3 10 2 20 -3 23 -6 4 -10 -1 -10
-9 0 -9 -4 -16 -10 -16 -14 0 -12 27 3 33 6 3 19 -2 27 -9 12 -12 12 -16 1
-26z m-237 -1 c2 -29 -1 -32 -23 -18 -9 6 -10 11 -2 15 6 4 11 12 11 19 0 8
-3 8 -12 -1 -16 -16 -28 -15 -28 2 0 10 9 14 27 13 21 -2 26 -8 27 -30z m204
-8 c14 0 13 -2 -3 -9 -31 -13 -35 -12 -36 13 -1 16 -2 18 -6 5 -2 -10 -8 -18
-13 -18 -5 0 -11 8 -13 18 -4 13 -5 12 -6 -5 -1 -13 6 -23 17 -26 9 -2 -16 -4
-56 -5 -64 0 -71 2 -55 13 15 11 16 16 5 27 -11 11 -13 11 -10 -1 2 -7 -3 -16
-9 -18 -7 -3 -13 2 -13 10 0 9 6 17 13 20 21 7 46 -4 41 -18 -3 -7 0 -16 7
-21 7 -4 10 -3 5 4 -8 14 23 31 64 36 17 2 34 7 38 11 4 4 8 -3 10 -14 2 -12
11 -21 20 -22z m299 -5 c3 -10 -118 -114 -133 -114 -3 0 -3 8 1 18 4 9 11 33
14 52 5 29 13 37 41 47 41 14 72 13 77 -3z m-102 -139 c-27 -23 -28 -25 -9
-25 25 0 38 -34 19 -50 -13 -11 -95 7 -95 22 0 14 61 67 83 71 12 2 24 5 27 5
3 1 -8 -10 -25 -23z m-256 -177 c36 8 59 8 65 2 7 -7 6 -10 -3 -10 -7 0 -10
-3 -8 -8 3 -4 -34 -9 -82 -10 -63 -3 -99 1 -125 12 -57 24 -35 35 35 18 51
-13 72 -13 118 -4z m-169 -43 c0 6 7 1 15 -9 9 -12 15 -15 15 -7 0 8 6 11 15
7 8 -3 15 -1 15 5 0 12 104 8 135 -6 18 -8 19 -7 6 8 -9 12 -10 17 -2 17 6 0
14 -7 17 -15 6 -14 8 -13 20 2 15 20 15 19 19 -15 2 -16 -1 -20 -10 -12 -6 5
-15 7 -18 3 -4 -3 1 -12 11 -19 15 -11 13 -14 -20 -28 -55 -23 -169 -21 -218
4 -46 23 -53 35 -12 18 15 -6 72 -12 127 -13 77 -2 94 0 75 8 -14 5 -31 9 -37
8 -7 -1 -13 6 -13 16 0 14 2 15 9 5 7 -11 9 -11 14 2 5 13 -2 16 -38 16 -25 0
-45 -4 -45 -10 0 -5 8 -9 18 -7 9 1 18 -2 20 -8 1 -5 -8 -11 -20 -12 -13 0
-34 -4 -48 -7 -15 -4 -18 -3 -8 1 12 6 15 12 8 23 -5 8 -10 10 -10 4 0 -14
-25 -25 -42 -19 -7 3 -14 17 -15 32 -1 19 1 22 8 12 5 -8 9 -9 9 -4z"/>
</g>
</svg>
